<svg width="16" height="16" xmlns="http://www.w3.org/2000/svg"><g fill="none" fill-rule="evenodd"><path d="M3 12.905v-2.708C4.334 10.74 6.169 11 8 11s3.666-.26 5-.803v2.708C12.738 13.246 11.027 14 8 14s-4.738-.754-5-1.095zM8 2c2.764 0 4.439.63 4.909 1-.47.37-2.145 1-4.909 1s-4.439-.63-4.909-1C3.561 2.63 5.236 2 8 2zm5 5.905C12.738 8.246 11.027 9 8 9s-4.738-.754-5-1.095V5.197C4.334 5.74 6.169 6 8 6s3.666-.26 5-.803v2.708zM8 0C4.516 0 1 .927 1 3v10c0 2.072 3.516 3 7 3s7-.928 7-3V3c0-2.073-3.516-3-7-3z" fill="#888" fill-rule="nonzero"/><path d="M0 0h16v16H0z"/></g></svg>