<?xml version="1.0" encoding="UTF-8"?>
<svg width="16px" height="16px" viewBox="0 0 16 16" version="1.1" xmlns="http://www.w3.org/2000/svg" xmlns:xlink="http://www.w3.org/1999/xlink">
    <!-- Generator: Sketch 52.6 (67491) - http://www.bohemiancoding.com/sketch -->
    <title>微信解决方案-16px</title>
    <desc>Created with Sketch.</desc>
    <g id="微信解决方案-16px" stroke="none" stroke-width="1" fill="none" fill-rule="evenodd">
        <rect id="Rectangle-Copy" fill="#444444" opacity="0" x="0" y="0" width="16" height="16"></rect>
        <path d="M6,8 C5.44771525,8 5,7.55228475 5,7 C5,6.44771525 5.44771525,6 6,6 C6.55228475,6 7,6.44771525 7,7 C7,7.55228475 6.55228475,8 6,8 Z M11,8 C10.4477153,8 10,7.55228475 10,7 C10,6.44771525 10.4477153,6 11,6 C11.5522847,6 12,6.44771525 12,7 C12,7.55228475 11.5522847,8 11,8 Z M6.6392989,11.7339776 C7.2298543,11.9091102 7.85610545,12 8.5,12 C11.596098,12 14,9.9166183 14,7.5 C14,5.0833817 11.596098,3 8.5,3 C5.40390196,3 3,5.0833817 3,7.5 C3,8.76981123 3.65664975,9.97619256 4.82479887,10.8395366 C5.15827825,11.0860012 5.37981871,11.3782561 5.51769404,11.6944357 C5.86778521,11.6160324 6.22555381,11.611279 6.6392989,11.7339776 Z M8.5,14 C7.64975722,14 6.83255928,13.8773825 6.07066466,13.6514381 C5.6261291,13.5196085 3.68346103,15.1949304 3.281,14.996582 C2.86757799,14.7928317 3.99564658,12.7136805 3.63607955,12.4479353 C2.02293701,11.2557099 1,9.48138686 1,7.5 C1,3.91014913 4.35786438,1 8.5,1 C12.6421356,1 16,3.91014913 16,7.5 C16,11.0898509 12.6421356,14 8.5,14 Z" id="Combined-Shape" fill="#888888" fill-rule="nonzero"></path>
    </g>
</svg>