<svg width="16" height="16" xmlns="http://www.w3.org/2000/svg"><path d="M10.347 13.521A12.842 12.842 0 0011.559 9h2.351a6.015 6.015 0 01-3.563 4.521zM2.091 9h2.35a12.843 12.843 0 001.213 4.521A6.015 6.015 0 012.091 9zm3.563-6.522A12.843 12.843 0 004.441 7h-2.35a6.015 6.015 0 013.563-4.522zM9.554 9A10.905 10.905 0 018 13.687 10.904 10.904 0 016.447 9h3.107zM6.447 7A10.895 10.895 0 018 2.313 10.896 10.896 0 019.554 7H6.447zm7.463 0h-2.351a12.842 12.842 0 00-1.212-4.522A6.015 6.015 0 0113.91 7zM8 0a8 8 0 100 16 8 8 0 008-8 8 8 0 00-8-8z" fill="#888" fill-rule="nonzero"/></svg>