<svg width="16" height="16" xmlns="http://www.w3.org/2000/svg"><path d="M8.85 11.414a3.203 3.203 0 00-1.7 0V9.236a1.5 1.5 0 111.7 0v2.178zm1.407-5.683L12.5 4.45a1.5 1.5 0 112.349 1.287v2.678a3.203 3.203 0 00-1.7 0V6.036l-2.049 1.171a3.196 3.196 0 00-.844-1.476zm-4.514 0c-.403.401-.7.908-.844 1.476L2.85 6.037v2.377a3.203 3.203 0 00-1.7 0V5.736A1.5 1.5 0 113.5 4.45l2.243 1.282zm3.107-.817a3.203 3.203 0 00-1.7 0V2.736a1.5 1.5 0 111.7 0v2.178zM8 16a1.5 1.5 0 110-3 1.5 1.5 0 010 3zm-6-3a1.5 1.5 0 110-3 1.5 1.5 0 010 3zm12 0a1.5 1.5 0 110-3 1.5 1.5 0 010 3z" fill="#888" fill-rule="nonzero"/></svg>